# xmcd CD database file
#
# Track frame offsets:
#	150
#	15265
#	32196
#	44683
#	56965
#	71110
#	81821
#	92358
#	113323
#	138988
#	155432
#	172278
#	183338
#	195323
#	212837
#	226549
#	238368
#	254909
#
# Disc length: 3594 seconds
#
# Revision: 1
# Processed by: cddbd v1.5.2PL0 Copyright (c) Steve Scherf et al.
# Submitted via: CDex 1.51
#
DISCID=f80e0812
DTITLE=mój empik - moja muzyka vol.1 CD 1
DYEAR=2016
DGENRE=Jazz
TTITLE0=Frank Sinatra - Come Fly With Me
TTITLE1=Sammy Davis Jr. - Body and Soul
TTITLE2=Paul Anka - (All of A.Sudden) - My Heart Sings
TTITLE3=Dean Martin - Sway
TTITLE4=The Four Lads - Fly Me To The Moon
TTITLE5=Oskar Peterson - Every Time We Say Goodbye
TTITLE6=Chet Backer - My Funny Valentine
TTITLE7=Louis Armstrong - Have You Met Miss Jones?
TTITLE8=The Dave Brubeck Quartet - Take Five
TTITLE9=Ray Charles - Georgia On My Mind
TTITLE10=Quincy Jones - Caravan
TTITLE11=Sammy Davis Jr. - Easy To Love
TTITLE12=Sam Cooke - Mona Lisa
TTITLE13=Michel Legrand - April In Paris
TTITLE14=Tonny Bennett - Blue Velvet
TTITLE15=Danny Wiliams - Moon River
TTITLE16=Billie Holiday - Check To Check
TTITLE17=Tonny Bennett and Percy Faith - Stranger In Paradise
EXTD=YEAR: 2016
EXTT0=
EXTT1=
EXTT2=
EXTT3=
EXTT4=
EXTT5=
EXTT6=
EXTT7=
EXTT8=
EXTT9=
EXTT10=
EXTT11=
EXTT12=
EXTT13=
EXTT14=
EXTT15=
EXTT16=
EXTT17=
PLAYORDER=
